<svg xmlns="http://www.w3.org/2000/svg" width="142" height="31.001" viewBox="0 0 142 31.001">
  <path id="Subtraction_2" data-name="Subtraction 2" d="M-17,25H-159V9a14.9,14.9,0,0,1,4.393-10.607A14.9,14.9,0,0,1-144-6H-17V25ZM-37.752,12.986h0l4.825,2.354A3.013,3.013,0,0,0-33,16a3,3,0,0,0,3,3,3,3,0,0,0,3-3,3,3,0,0,0-3-3,2.987,2.987,0,0,0-2.546,1.413l-4.675-2.28A2.979,2.979,0,0,0-37,11a2.971,2.971,0,0,0-.221-1.132l4.675-2.281A2.985,2.985,0,0,0-30,9a3,3,0,0,0,3-3,3,3,0,0,0-3-3,3,3,0,0,0-3,3,3.019,3.019,0,0,0,.073.661l-4.826,2.353A3,3,0,0,0-40,8a3,3,0,0,0-3,3,3,3,0,0,0,3,3,3,3,0,0,0,2.247-1.013ZM-98.133,5.718a5.657,5.657,0,0,0-2,.345,4.656,4.656,0,0,0-1.586.982,4.592,4.592,0,0,0-1.047,1.5,4.736,4.736,0,0,0-.377,1.9,4.736,4.736,0,0,0,.377,1.9,4.587,4.587,0,0,0,1.047,1.5,4.668,4.668,0,0,0,1.586.981,5.658,5.658,0,0,0,2,.345,5.454,5.454,0,0,0,2.255-.448,4.479,4.479,0,0,0,1.658-1.268l-1.638-1.481a3.254,3.254,0,0,1-.968.793A2.531,2.531,0,0,1-98,13.05a2.816,2.816,0,0,1-1.027-.182,2.218,2.218,0,0,1-.8-.527,2.486,2.486,0,0,1-.519-.825,2.911,2.911,0,0,1-.189-1.067,2.9,2.9,0,0,1,.189-1.066,2.494,2.494,0,0,1,.519-.826,2.218,2.218,0,0,1,.8-.526A2.833,2.833,0,0,1-98,7.85a2.521,2.521,0,0,1,1.176.274,3.224,3.224,0,0,1,.968.793l1.638-1.482A4.366,4.366,0,0,0-95.878,6.16,5.525,5.525,0,0,0-98.133,5.718Zm-47.749,6.566-.845,1.9a5.616,5.616,0,0,0,1.684.721,8.238,8.238,0,0,0,2.151.28,5.471,5.471,0,0,0,2.243-.4,3.109,3.109,0,0,0,1.339-1.073,2.583,2.583,0,0,0,.448-1.462,2.319,2.319,0,0,0-.28-1.189,2.264,2.264,0,0,0-.734-.767,4.22,4.22,0,0,0-1.007-.468,11.432,11.432,0,0,0-1.105-.292c-.385-.082-.717-.156-1.014-.228a2.507,2.507,0,0,1-.741-.286.539.539,0,0,1-.28-.474.654.654,0,0,1,.143-.416.978.978,0,0,1,.468-.293,2.744,2.744,0,0,1,.859-.111,4.664,4.664,0,0,1,1.235.175,6.194,6.194,0,0,1,1.287.527l.793-1.912a5.66,5.66,0,0,0-1.541-.591,7.778,7.778,0,0,0-1.761-.2,5.487,5.487,0,0,0-2.236.4,3.117,3.117,0,0,0-1.346,1.067,2.591,2.591,0,0,0-.449,1.481,2.3,2.3,0,0,0,.286,1.2,2.338,2.338,0,0,0,.741.768,4.455,4.455,0,0,0,1.008.474,10.48,10.48,0,0,0,1.105.3c.385.082.714.158,1.007.234a2.588,2.588,0,0,1,.741.3.562.562,0,0,1,.286.494.548.548,0,0,1-.149.383,1.039,1.039,0,0,1-.474.26,3.1,3.1,0,0,1-.858.1,5.262,5.262,0,0,1-1.593-.253A5.976,5.976,0,0,1-145.882,12.283Zm91.455-4.069V10.06H-53.4v2.366a2.577,2.577,0,0,0,.753,2.021,3.079,3.079,0,0,0,2.106.67,4.5,4.5,0,0,0,.95-.1,2.21,2.21,0,0,0,.767-.305l-.611-1.729a1.281,1.281,0,0,1-.754.22.712.712,0,0,1-.533-.214.818.818,0,0,1-.208-.591V10.06h1.612V8.214H-50.93V6.381H-53.4V8.214Zm-3.614-.377a4.6,4.6,0,0,0-2.086.462,3.564,3.564,0,0,0-1.436,1.28,3.453,3.453,0,0,0-.52,1.886,3.48,3.48,0,0,0,.52,1.891,3.6,3.6,0,0,0,1.436,1.294,4.551,4.551,0,0,0,2.086.468,4.057,4.057,0,0,0,2.067-.508,2.816,2.816,0,0,0,1.235-1.43L-56.65,12.2a1.75,1.75,0,0,1-.611.722,1.48,1.48,0,0,1-.793.228,1.59,1.59,0,0,1-.78-.2,1.386,1.386,0,0,1-.553-.572,1.946,1.946,0,0,1-.2-.922,1.877,1.877,0,0,1,.2-.9A1.388,1.388,0,0,1-58.834,10a1.582,1.582,0,0,1,.78-.2,1.473,1.473,0,0,1,.793.228,1.74,1.74,0,0,1,.611.721l1.911-.975a2.822,2.822,0,0,0-1.235-1.43A4.065,4.065,0,0,0-58.041,7.837Zm-9.126,3a5.26,5.26,0,0,0-1.781.254,2.084,2.084,0,0,0-1.021.728,1.923,1.923,0,0,0-.331,1.124,2.071,2.071,0,0,0,.305,1.105,2.111,2.111,0,0,0,.891.78,3.247,3.247,0,0,0,1.43.286,2.692,2.692,0,0,0,1.489-.371,1.733,1.733,0,0,0,.591-.658V15h2.3V11.087a3.041,3.041,0,0,0-.942-2.463,4.053,4.053,0,0,0-2.659-.787,6.742,6.742,0,0,0-1.67.214,4.8,4.8,0,0,0-1.436.6l.832,1.677a2.734,2.734,0,0,1,.884-.448,3.426,3.426,0,0,1,1.027-.163,1.691,1.691,0,0,1,1.138.319,1.11,1.11,0,0,1,.355.8Zm-9.282-2.625V10.06h1.027v2.366a2.574,2.574,0,0,0,.754,2.021,3.076,3.076,0,0,0,2.106.67,4.492,4.492,0,0,0,.949-.1,2.209,2.209,0,0,0,.767-.305l-.611-1.729a1.28,1.28,0,0,1-.753.22.713.713,0,0,1-.534-.214.818.818,0,0,1-.208-.591V10.06h1.612V8.214h-1.612V6.381h-2.47V8.214Zm-13.429-.377a4.449,4.449,0,0,0-2.055.462,3.548,3.548,0,0,0-1.41,1.28,3.494,3.494,0,0,0-.513,1.886,3.522,3.522,0,0,0,.513,1.891,3.584,3.584,0,0,0,1.41,1.294,4.406,4.406,0,0,0,2.055.468,4.439,4.439,0,0,0,2.06-.468,3.525,3.525,0,0,0,1.41-1.294,3.55,3.55,0,0,0,.508-1.891,3.522,3.522,0,0,0-.508-1.886,3.49,3.49,0,0,0-1.41-1.28A4.482,4.482,0,0,0-89.878,7.837Zm-21.606,0a4.251,4.251,0,0,0-1.989.462,3.451,3.451,0,0,0-1.384,1.287,3.563,3.563,0,0,0-.5,1.878,3.5,3.5,0,0,0,.514,1.878,3.577,3.577,0,0,0,1.443,1.3,4.749,4.749,0,0,0,2.178.475,4.806,4.806,0,0,0,1.755-.292,3.3,3.3,0,0,0,1.247-.851l-1.3-1.353a2.714,2.714,0,0,1-.734.462,2.391,2.391,0,0,1-.891.149,2.127,2.127,0,0,1-.961-.2,1.43,1.43,0,0,1-.618-.578,1.562,1.562,0,0,1-.144-.351h5.116c.009-.1.018-.2.026-.312s.013-.212.013-.3a3.718,3.718,0,0,0-.508-1.989,3.293,3.293,0,0,0-1.364-1.242A4.259,4.259,0,0,0-111.484,7.837Zm-14.534,3a5.26,5.26,0,0,0-1.781.254,2.084,2.084,0,0,0-1.021.728,1.923,1.923,0,0,0-.331,1.124,2.071,2.071,0,0,0,.305,1.105,2.112,2.112,0,0,0,.891.78,3.247,3.247,0,0,0,1.43.286,2.692,2.692,0,0,0,1.489-.371,1.733,1.733,0,0,0,.591-.658V15h2.3V11.087a3.041,3.041,0,0,0-.942-2.463,4.053,4.053,0,0,0-2.659-.787,6.742,6.742,0,0,0-1.67.214,4.8,4.8,0,0,0-1.436.6l.833,1.677a2.734,2.734,0,0,1,.884-.448,3.427,3.427,0,0,1,1.027-.163,1.691,1.691,0,0,1,1.138.319,1.11,1.11,0,0,1,.355.8Zm45.136-.91a1.083,1.083,0,0,1,.851.345,1.635,1.635,0,0,1,.306,1.1V15h2.47V10.97a3.657,3.657,0,0,0-.383-1.781,2.439,2.439,0,0,0-1.047-1.021,3.286,3.286,0,0,0-1.481-.331,3.27,3.27,0,0,0-1.587.383,2.594,2.594,0,0,0-.65.5V7.954h-2.353V15h2.47V11.594a2.142,2.142,0,0,1,.182-.949,1.209,1.209,0,0,1,.508-.54A1.483,1.483,0,0,1-80.882,9.93Zm-39.7-1.975V15h2.47V11.763a1.7,1.7,0,0,1,.468-1.333,1.8,1.8,0,0,1,1.222-.409c.09,0,.18,0,.266.007a2.8,2.8,0,0,1,.293.032V7.837h-.006a3.421,3.421,0,0,0-1.7.395,2.231,2.231,0,0,0-.663.568V7.954ZM-133.922,9.93a1.083,1.083,0,0,1,.851.345,1.64,1.64,0,0,1,.305,1.1V15h2.471V10.97a3.657,3.657,0,0,0-.383-1.781,2.439,2.439,0,0,0-1.047-1.021,3.288,3.288,0,0,0-1.482-.331,3.269,3.269,0,0,0-1.586.383,2.553,2.553,0,0,0-.533.386V5.354H-137.8V15h2.471V11.594a2.132,2.132,0,0,1,.182-.949,1.211,1.211,0,0,1,.507-.54A1.49,1.49,0,0,1-133.922,9.93Zm66.937,3.627a1.07,1.07,0,0,1-.676-.194.633.633,0,0,1-.247-.52.64.64,0,0,1,.24-.52,1.369,1.369,0,0,1,.839-.2h1.066v.611a1.181,1.181,0,0,1-.488.617A1.385,1.385,0,0,1-66.985,13.557Zm-58.851,0a1.07,1.07,0,0,1-.676-.194.633.633,0,0,1-.247-.52.64.64,0,0,1,.24-.52,1.369,1.369,0,0,1,.839-.2h1.066v.611a1.181,1.181,0,0,1-.488.617A1.385,1.385,0,0,1-125.836,13.557Zm35.959-.4a1.459,1.459,0,0,1-.748-.2,1.419,1.419,0,0,1-.533-.579,1.957,1.957,0,0,1-.2-.916,1.877,1.877,0,0,1,.2-.9A1.426,1.426,0,0,1-90.626,10a1.451,1.451,0,0,1,.748-.2,1.476,1.476,0,0,1,.761.2,1.394,1.394,0,0,1,.526.565,1.932,1.932,0,0,1,.194.9,2.014,2.014,0,0,1-.194.916,1.387,1.387,0,0,1-.526.579A1.484,1.484,0,0,1-89.878,13.154ZM-110.024,10.8h-2.885a1.645,1.645,0,0,1,.15-.462,1.332,1.332,0,0,1,.514-.553,1.5,1.5,0,0,1,.773-.194,1.511,1.511,0,0,1,.774.194,1.389,1.389,0,0,1,.52.546,1.483,1.483,0,0,1,.153.467Z" transform="translate(159 6)" fill="#6dd1d4"/>
</svg>
